# xmcd
#
# Track frame offsets: 
#        150
#        12855
#        29536
#        47976
#        69681
#        84268
#        91360
#        111008
#        127151
#        144639
#        148036
#        164313
#        170529
#        185567
#        201708
#        218150
#        225458
#        236836
#        248909
#
# Disc length: 3359 seconds
#
# Revision: 3
# Processed by: cddbd v1.5.2PL0 Copyright (c) Steve Scherf et al.
# Submitted via: ExactAudioCopyFreeDBPlugin 1.0
#
DISCID=1d0d1d13
DTITLE=Roey Marquis II. - Samsara
DYEAR=2003
DGENRE=Hip Hop
TTITLE0=Curse - Erinnert ihr Euch?!
TTITLE1=Pal One - Mein Leben, meine Hoffnung, meine Träume
TTITLE2=Jonesmann and Vidigal - Allein
TTITLE3=Tatwaffe - Seelenlos?
TTITLE4=Profan78 and Lunafrow - Herz der Aggression
TTITLE5=Person eines Dramas
TTITLE6=Pal One - Faustregel
TTITLE7=Absztrakkt - Formen
TTITLE8=Italo Reno and Germany - Hoffnung
TTITLE9=Blutendes Herz
TTITLE10=Jeyz and Instinkt - ...bis der Vorhang fällt!
TTITLE11=Reisen
TTITLE12=DCS - Präsenz
TTITLE13=Stress and Trauma - Ein Tropfen (vom) Leben
TTITLE14=Nachtregen
TTITLE15=Snake Eyes
TTITLE16=Jonesmann and Sezai - Gefangen im Gewirr
TTITLE17=Pal One - Insane World
TTITLE18=Zurück zur Quelle
EXTD=
EXTT0=
EXTT1=
EXTT2=
EXTT3=
EXTT4=
EXTT5=
EXTT6=
EXTT7=
EXTT8=
EXTT9=
EXTT10=
EXTT11=
EXTT12=
EXTT13=
EXTT14=
EXTT15=
EXTT16=
EXTT17=
EXTT18=
PLAYORDER=
